<?xml version="1.0" encoding="UTF-8" standalone="no"?>
<svg
   class="svg-icon"
   style="width: 1em;height: 1em;vertical-align: middle;fill: currentColor;overflow: hidden;"
   viewBox="0 0 1024 1024"
   version="1.1"
   id="svg1"
   sodipodi:docname="netease.svg"
   inkscape:version="1.3.2 (091e20ef0f, 2023-11-25)"
   xmlns:inkscape="http://www.inkscape.org/namespaces/inkscape"
   xmlns:sodipodi="http://sodipodi.sourceforge.net/DTD/sodipodi-0.dtd"
   xmlns="http://www.w3.org/2000/svg"
   xmlns:svg="http://www.w3.org/2000/svg">
  <defs
     id="defs1" />
  <sodipodi:namedview
     id="namedview1"
     pagecolor="#ffffff"
     bordercolor="#666666"
     borderopacity="1.0"
     inkscape:showpageshadow="2"
     inkscape:pageopacity="0.0"
     inkscape:pagecheckerboard="0"
     inkscape:deskcolor="#d1d1d1"
     inkscape:zoom="0.79492188"
     inkscape:cx="512"
     inkscape:cy="450.35872"
     inkscape:window-width="1920"
     inkscape:window-height="1018"
     inkscape:window-x="0"
     inkscape:window-y="0"
     inkscape:window-maximized="1"
     inkscape:current-layer="svg1" />
  <rect
     style="fill:#dc001a;fill-opacity:1;fill-rule:evenodd;stroke-width:0;stroke-linecap:round;stroke-linejoin:round"
     id="rect1"
     width="960"
     height="960"
     x="32"
     y="32"
     ry="240" />
  <path
     d="m 448.84386,486.99371 c -11.76,41.12 0.48,82.56 31.36,106.12 42.44,32.4 102.6,12 114.96,-39.8 3.2,-13.48 4.12,-28.88 1.08,-42.24 -9.2,-40.04 -20.8,-79.52 -31.68,-119.84 -53.2,6.16 -101.72,46.88 -115.72,95.76 z m 221.92,-11.48 c 10.92,40.48 11.4,80.68 -5.08,120 -45.12,107.6 -188.84,125.6 -262.92,33.04 -52.08,-65.08 -51.2,-158.44 2.4,-229.36 31.2,-41.28 72.16,-68.28 121.92,-82.16 l 15.16,-4.16 c -3.36,-16.6 -7.52,-32.64 -9.72,-48.96 -7.04,-52.68 20.48,-100.12 69.76,-121.6 49.04,-21.4 108.32,-8.64 141.2,30.4 16.24,19.16 15.8,43.2 -1,58.56 -16.48,15.08 -39.84,13.84 -57.4,-3.6 -9.88,-9.84 -20.4,-17.6 -35.08,-17.44 -21,0.24 -39.48,16.72 -37.8,37.48 1.48,18.72 6.92,37.2 12,55.44 0.88,3.12 8.64,5.4 13.52,6.12 53.36,7.88 100.16,29.24 138.88,67.04 102.32,99.72 114.44,261.24 26.88,377.6 -61.16,81.28 -144.4,126.72 -245.08,136.36 -184.84,17.6 -346.56,-101.2 -388,-282.32 -37.8,-165.76 55.2,-342.72 213.4,-405.96 23.44,-9.36 45.72,-1.24 54.84,19.92 9.28,21.48 -0.76,43.44 -24.4,54 -94.72,42.4 -152.68,114.2 -168.6,216.96 -21.32,137.32 66.24,271.04 200,308.8 108.92,30.8 226.32,-6.64 292.32,-93.2 63.44,-83.2 56,-203.96 -17.08,-274.92 a 159.16,159.16 0 0 0 -72.92,-40.52 c 7.92,28.64 15.56,55.52 22.8,82.48 z"
     id="path1"
     style="overflow:hidden;fill:#ffffff;fill-opacity:1;stroke-width:0.9375" />
</svg>
