<?xml version="1.0" encoding="UTF-8" standalone="no"?>
<!-- Created with Inkscape (http://www.inkscape.org/) -->

<svg
   width="140.18758mm"
   height="140.18759mm"
   viewBox="0 0 140.18758 140.18759"
   version="1.1"
   id="svg5"
   xml:space="preserve"
   xmlns="http://www.w3.org/2000/svg"
   xmlns:svg="http://www.w3.org/2000/svg"><defs
     id="defs2" /><g
     id="layer1"
     transform="translate(335.15307,-40.438725)"><path
       style="fill:#2da1d9;fill-opacity:1;stroke-width:0.264999"
       id="rect788"
       width="140.18759"
       height="140.18759"
       x="-335.15308"
       y="40.438725"
       d="m -309.75308,40.438725 89.3876,0 a 25.4,25.4 45 0 1 25.4,25.4 v 89.387595 a 25.4,25.4 135 0 1 -25.4,25.4 h -89.3876 a 25.4,25.4 45 0 1 -25.4,-25.4 l 0,-89.387595 a 25.4,25.4 135 0 1 25.4,-25.4 z" /><g
       id="g185"
       transform="matrix(1.7852976,0,0,1.7852976,-68.935479,-71.612091)"><path
         id="path25785"
         style="fill:#ffffff;stroke-width:26.8825"
         d="m -108.08056,114.54507 a 6.1983495,2.4103074 0 0 1 -6.19835,2.4103 6.1983495,2.4103074 0 0 1 -6.19835,-2.4103 6.1983495,2.4103074 0 0 1 6.19835,-2.41031 6.1983495,2.4103074 0 0 1 6.19835,2.41031 z" /><path
         id="path25785-6"
         style="fill:#ffffff;stroke-width:130.511"
         d="m -83.109791,101.12426 a 18.406971,19.130522 0 0 1 -18.406969,19.13052 18.406971,19.130522 0 0 1 -18.40697,-19.13052 18.406971,19.130522 0 0 1 18.40697,-19.130522 18.406971,19.130522 0 0 1 18.406969,19.130522 z" /><path
         id="path25785-6-7-6"
         style="fill:#ffffff;stroke-width:102.713"
         d="m -107.23731,102.44091 a 15.009946,14.530337 0 0 1 -15.00994,14.53034 15.009946,14.530337 0 0 1 -15.00995,-14.53034 15.009946,14.530337 0 0 1 15.00995,-14.530337 15.009946,14.530337 0 0 1 15.00994,14.530337 z" /><path
         id="rect26019"
         style="fill:#ffffff;stroke-width:138.294"
         d="m -124.87912,97.019371 h 30.048321 c 9.268948,0 16.730953,5.181509 16.730953,11.617729 0,6.43622 -7.462005,11.61772 -16.730953,11.61772 h -30.048321 c -9.26895,0 -16.73096,-5.1815 -16.73096,-11.61772 0,-6.43622 7.46201,-11.617729 16.73096,-11.617729 z" /></g><g
       id="g192"
       transform="matrix(1.076809,0,0,1.076809,21.406633,-4.6945147)"><rect
         style="fill:#0091e9;fill-opacity:1;fill-rule:evenodd;stroke:none;stroke-width:0;stroke-linecap:round;stroke-linejoin:round;stroke-dasharray:none;stroke-opacity:1"
         id="rect46706"
         width="6.2492657"
         height="28.230335"
         x="-289.75104"
         y="96.791527"
         ry="3.9650633" /><rect
         style="fill:#0091e9;fill-opacity:1;fill-rule:evenodd;stroke:none;stroke-width:0;stroke-linecap:round;stroke-linejoin:round;stroke-dasharray:none;stroke-opacity:1"
         id="rect46706-0"
         width="6.2492657"
         height="20.31529"
         x="-280.37714"
         y="101.01288"
         ry="3.8438904" /><rect
         style="fill:#0091e9;fill-opacity:1;fill-rule:evenodd;stroke:none;stroke-width:0;stroke-linecap:round;stroke-linejoin:round;stroke-dasharray:none;stroke-opacity:1"
         id="rect46706-0-6"
         width="6.2492657"
         height="21.37063"
         x="-269.867"
         y="100.74902"
         ry="3.9327507" /><rect
         style="fill:#0091e9;fill-opacity:1;fill-rule:evenodd;stroke:none;stroke-width:0;stroke-linecap:round;stroke-linejoin:round;stroke-dasharray:none;stroke-opacity:1"
         id="rect46706-0-6-1"
         width="6.2492657"
         height="14.510921"
         x="-259.64096"
         y="104.44274"
         ry="3.0926147" /><rect
         style="fill:#0091e9;fill-opacity:1;fill-rule:evenodd;stroke:none;stroke-width:0;stroke-linecap:round;stroke-linejoin:round;stroke-dasharray:none;stroke-opacity:1"
         id="rect46706-0-6-1-5"
         width="6.2492657"
         height="21.37063"
         x="-248.56271"
         y="101.01288"
         ry="3.394202" /></g></g></svg>
